<?xml version="1.0" ?><!DOCTYPE svg  PUBLIC '-//W3C//DTD SVG 1.1//EN'  'http://www.w3.org/Graphics/SVG/1.1/DTD/svg11.dtd'><svg enable-background="new 0 0 64 64" height="64px" id="Layer_1" version="1.1" viewBox="0 0 64 64" width="64px" xml:space="preserve" xmlns="http://www.w3.org/2000/svg" xmlns:xlink="http://www.w3.org/1999/xlink"><path d="M63.883,4.55c0.418-2.176-1.482-1.714-2.068-1.524l-0.177,0.06l-0.004,0.001L43.211,9.314l0,0  c-1.44,0.487-3.033,0.162-3.033,0.162s0.004,0.018,0.004,0.02C37.65,8.87,34.999,8.509,32.24,8.509  c-3.021,0-5.919,0.438-8.667,1.185c-0.025,0.004-0.037-0.012-0.059-0.005c-0.635,0.167-1.731,0-1.731,0l0,0L1.762,2.918l0,0  c-1.9-0.642-1.698,1.38-1.698,1.38l0,0l4.357,18.281c0,0,0.275,2.102-0.235,3.504c-0.015,0.037,0.004,0.061-0.007,0.095  c-1.074,2.722-1.69,5.634-1.69,8.68c0,14.551,13.321,26.35,29.752,26.35c16.437,0,29.754-11.799,29.754-26.35  c0-2.835-0.547-5.548-1.485-8.104c-0.012-0.042-0.004-0.075-0.019-0.119c-0.403-1.178-0.147-3.78-0.147-3.78L63.883,4.55z   M31.951,57.354c-14.371,0-26.019-9.921-26.019-22.163c0-12.241,11.648-22.163,26.019-22.163c14.366,0,26.016,9.921,26.016,22.163  C57.967,47.433,46.317,57.354,31.951,57.354z" fill="#241F20"/></svg>